<svg width="1200" height="675" viewBox="0 0 1200 675" fill="none" xmlns="http://www.w3.org/2000/svg">
  <defs>
    <linearGradient id="nuwaIdHeroBg" x1="120" y1="80" x2="1040" y2="620" gradientUnits="userSpaceOnUse">
      <stop stop-color="#1E1B4B"/>
      <stop offset="0.5" stop-color="#1D4ED8"/>
      <stop offset="1" stop-color="#0F766E"/>
    </linearGradient>
    <radialGradient id="nuwaIdGlow" cx="0" cy="0" r="1" gradientUnits="userSpaceOnUse" gradientTransform="translate(840 170) rotate(90) scale(260 390)">
      <stop stop-color="#BAE6FD" stop-opacity="0.9"/>
      <stop offset="1" stop-color="#BAE6FD" stop-opacity="0"/>
    </radialGradient>
  </defs>
  <rect width="1200" height="675" rx="44" fill="url(#nuwaIdHeroBg)"/>
  <rect x="84" y="92" width="360" height="492" rx="28" fill="#0F172A" fill-opacity="0.58" stroke="#93C5FD" stroke-opacity="0.4"/>
  <rect x="118" y="136" width="292" height="54" rx="14" fill="#1E293B"/>
  <rect x="118" y="212" width="208" height="20" rx="10" fill="#38BDF8" fill-opacity="0.7"/>
  <rect x="118" y="248" width="248" height="16" rx="8" fill="#C7D2FE" fill-opacity="0.7"/>
  <rect x="118" y="280" width="218" height="16" rx="8" fill="#C7D2FE" fill-opacity="0.6"/>
  <rect x="118" y="384" width="202" height="62" rx="16" fill="#0EA5E9"/>
  <circle cx="816" cy="318" r="166" stroke="#E0F2FE" stroke-opacity="0.92" stroke-width="22"/>
  <path d="M648 505C686 417 743 368 816 368C889 368 946 417 984 505" stroke="#67E8F9" stroke-width="22" stroke-linecap="round"/>
  <circle cx="816" cy="318" r="166" fill="url(#nuwaIdGlow)"/>
  <path d="M92 80L1108 595" stroke="#67E8F9" stroke-opacity="0.12" stroke-width="2"/>
  <path d="M84 640L1120 112" stroke="#A5B4FC" stroke-opacity="0.1" stroke-width="2"/>
</svg>
