<svg width="1200" height="675" viewBox="0 0 1200 675" fill="none" xmlns="http://www.w3.org/2000/svg">
  <defs>
    <linearGradient id="didDocsHeroBg" x1="80" y1="80" x2="1100" y2="620" gradientUnits="userSpaceOnUse">
      <stop stop-color="#020617"/>
      <stop offset="0.55" stop-color="#0F172A"/>
      <stop offset="1" stop-color="#1E293B"/>
    </linearGradient>
    <linearGradient id="didDocsGlow" x1="720" y1="150" x2="1020" y2="450" gradientUnits="userSpaceOnUse">
      <stop stop-color="#22D3EE" stop-opacity="0.75"/>
      <stop offset="1" stop-color="#38BDF8" stop-opacity="0"/>
    </linearGradient>
  </defs>
  <rect width="1200" height="675" rx="44" fill="url(#didDocsHeroBg)"/>
  <rect x="86" y="96" width="432" height="484" rx="26" fill="#0B1220" stroke="#334155"/>
  <rect x="128" y="148" width="348" height="26" rx="10" fill="#22D3EE" fill-opacity="0.8"/>
  <rect x="128" y="194" width="318" height="18" rx="9" fill="#94A3B8" fill-opacity="0.7"/>
  <rect x="128" y="224" width="286" height="18" rx="9" fill="#94A3B8" fill-opacity="0.6"/>
  <rect x="128" y="286" width="350" height="88" rx="14" fill="#0F172A" stroke="#475569"/>
  <rect x="156" y="322" width="190" height="16" rx="8" fill="#38BDF8" fill-opacity="0.7"/>
  <rect x="128" y="404" width="350" height="144" rx="14" fill="#0F172A" stroke="#475569"/>
  <rect x="156" y="446" width="162" height="16" rx="8" fill="#22D3EE" fill-opacity="0.8"/>
  <circle cx="858" cy="314" r="144" stroke="#67E8F9" stroke-width="18" stroke-opacity="0.9"/>
  <path d="M724 314L812 390L986 228" stroke="#67E8F9" stroke-width="18" stroke-linecap="round" stroke-linejoin="round"/>
  <circle cx="858" cy="314" r="190" fill="url(#didDocsGlow)"/>
  <path d="M90 90L1110 588" stroke="#22D3EE" stroke-opacity="0.08" stroke-width="2"/>
  <path d="M78 640L1120 132" stroke="#60A5FA" stroke-opacity="0.08" stroke-width="2"/>
</svg>
